<svg xmlns="http://www.w3.org/2000/svg" width="500" height="500" fill="none"><path fill="#000" d="M371.373 183.345H195.799c-6.746 0-12.214 5.458-12.214 12.191v42.666c0 6.733 5.468 12.191 12.214 12.191h177.072c5.616 0 10.285 4.316 10.716 9.905v110.476c0 6.732 5.468 12.19 12.214 12.19h41.985c6.746 0 12.214-5.458 12.214-12.19V262.583c0-6.732-5.468-12.19-12.214-12.19h-41.222c-7.167 0-12.977-5.799-12.977-12.953v-41.904c0-6.733-5.468-12.191-12.214-12.191Z"/><path fill="#000" d="M317.942 371.524v-42.667c0-6.732-5.468-12.19-12.214-12.19H163.742c-26.139 0-47.329-21.15-47.329-47.238V135.333c0-10.099 8.202-18.285 18.321-18.285h235.88c6.746 0 12.214-5.458 12.214-12.191V62.191c0-6.733-5.468-12.191-12.214-12.191H135.497C88.278 50 50 88.205 50 135.333v135.889a109.605 109.605 0 0 0 32.196 77.579L183.59 450v-54.095c0-6.733 5.469-12.191 12.214-12.191h109.925c6.746 0 12.214-5.458 12.214-12.19Z"/></svg>